<svg width="50" height="36" viewBox="0 0 50 36" fill="none" xmlns="http://www.w3.org/2000/svg">
<path d="M13.5 34C13.5 34.8284 14.1716 35.5 15 35.5C15.8284 35.5 16.5 34.8284 16.5 34H13.5ZM16.0607 1.93934C15.4749 1.35355 14.5251 1.35355 13.9393 1.93934L4.3934 11.4853C3.80761 12.0711 3.80761 13.0208 4.3934 13.6066C4.97918 14.1924 5.92893 14.1924 6.51472 13.6066L15 5.12132L23.4853 13.6066C24.0711 14.1924 25.0208 14.1924 25.6066 13.6066C26.1924 13.0208 26.1924 12.0711 25.6066 11.4853L16.0607 1.93934ZM16.5 34L16.5 3H13.5L13.5 34H16.5Z" fill="white"/>
<path d="M36.5 2C36.5 1.17157 35.8284 0.5 35 0.5C34.1716 0.5 33.5 1.17157 33.5 2H36.5ZM33.9393 34.0607C34.5251 34.6464 35.4749 34.6464 36.0607 34.0607L45.6066 24.5147C46.1924 23.9289 46.1924 22.9792 45.6066 22.3934C45.0208 21.8076 44.0711 21.8076 43.4853 22.3934L35 30.8787L26.5147 22.3934C25.9289 21.8076 24.9792 21.8076 24.3934 22.3934C23.8076 22.9792 23.8076 23.9289 24.3934 24.5147L33.9393 34.0607ZM33.5 2V33H36.5V2H33.5Z" fill="white"/>
</svg>
