<svg width="16" height="25" viewBox="0 0 16 25" fill="none" xmlns="http://www.w3.org/2000/svg">
<g clip-path="url(#clip0_229_16)">
<mask id="mask0_229_16" style="mask-type:alpha" maskUnits="userSpaceOnUse" x="0" y="0" width="16" height="25">
<path d="M0.5 0.5L0.5 24.5H15.5L15.5 0.5H0.5Z" fill="#D9D9D9"/>
</mask>
<g mask="url(#mask0_229_16)">
<path d="M4.91419 14.0858L14.0858 4.91421C14.8668 4.13316 14.8668 2.86684 14.0858 2.08579L13.9142 1.91421C13.1332 1.13317 11.8668 1.13317 11.0858 1.91421L1.91419 11.0858C1.13314 11.8669 1.13314 13.1332 1.91419 13.9142L2.08576 14.0858C2.86681 14.8669 4.13314 14.8669 4.91419 14.0858Z" fill="white"/>
<path d="M14.0858 20.0858L4.91421 10.9142C4.13316 10.1332 2.86684 10.1332 2.08579 10.9142L1.91421 11.0858C1.13317 11.8668 1.13317 13.1332 1.91421 13.9142L11.0858 23.0858C11.8669 23.8669 13.1332 23.8669 13.9142 23.0858L14.0858 22.9142C14.8669 22.1332 14.8669 20.8669 14.0858 20.0858Z" fill="white"/>
</g>
</g>
<defs>
<clipPath id="clip0_229_16">
<rect width="24" height="15" fill="white" transform="translate(0.5 24.5) rotate(-90)"/>
</clipPath>
</defs>
</svg>
